{"title":"Manny.Lewis.2015.BRRip.480p.x264.AAC-VYTO [P2PDL]","uid":12176902,"size":322333902,"categoryP":"video","categoryS":"movies","magnet":"?xt=urn:btih:feb22d253dc4fd415368dc6644390c5be2964b6f&amp;dn=Manny.Lewis.2015.BRRip.480p.x264.AAC-VYTO+%5BP2PDL%5D&amp;tr=udp%3A%2F%2Ftracker.openbittorrent.com%3A80&amp;tr=udp%3A%2F%2Fopen.demonii.com%3A1337&amp;tr=udp%3A%2F%2Ftracker.coppersurfer.tk%3A6969&amp;tr=udp%3A%2F%2Fexodus.desync.com%3A6969","seeders":1,"leechers":1,"uploader":"ValidusVyto","files":6,"time":1438332196,"description":"____    ____ ____    ____ .___________.  ______   \n     /   /      /   / |           | /  __    \n    /   /      /   /  `---|  |----`|  |  |  | \n        /     _    _/       |  |     |  |  |  | \n       /        |  |         |  |     |  `--'  | \n    __/         |__|         |__|      ______/  \n                                                  \nPresenting Small Encodes with quality for years!\n                                                                                                   \n                                                                                                   \n\nManny.Lewis.2015.BRRip.480p.x264.AAC-VYTO\n\n\nGenre: Comedy  &lt;a href=&quot;\nhttp://www.imdb.com/title/tt3852066/&quot; rel=&quot;nofollow&quot; target=&quot;_NEW&quot;&gt;\nhttp://www.imdb.com/title/tt3852066/&lt;/a&gt;\n\n\nGeneral\nFormat                         : MPEG-4\nFile size                      : 301 MiB\nDuration                       : 1h 29mn\nOverall bit rate               : 473 Kbps\n\nVideo\nFormat                         : AVC\nBit rate                       : 438 Kbps\nWidth                          : 720 pixels\nHeight                         : 400 pixels\nDisplay aspect ratio           : 16:9\nFrame rate mode                : Constant\nFrame rate                     : 24.000 fps\nBit depth                      : 8 bits\nStream size                    : 279 MiB (93%)\nWriting library                : x264 core 146 r2538 121396c\nAudio\nFormat                         : AAC\nBit rate mode                  : Variable\nBit rate                       : 31.9 Kbps\nChannel(s)                     : 2 channels\nChannel positions              : Front: L R \nSampling rate                  : 48.0 KHz \nStream size                    : 20.3 MiB (7%)\n\nSubtitle                       : N/a\nSource                         : 720p.BluRay.x264-PFa\n\n\nScreenshots:\n &lt;a href=&quot;\nhttp://ititli.com/Th&quot; rel=&quot;nofollow&quot; target=&quot;_NEW&quot;&gt;\nhttp://ititli.com/Th&lt;/a&gt; &lt;a href=&quot;\nhttp://ititli.com/Ts&quot; rel=&quot;nofollow&quot; target=&quot;_NEW&quot;&gt;\nhttp://ititli.com/Ts&lt;/a&gt; &lt;a href=&quot;\nhttp://ititli.com/TY&quot; rel=&quot;nofollow&quot; target=&quot;_NEW&quot;&gt;\nhttp://ititli.com/TY&lt;/a&gt; &lt;a href=&quot;\nhttp://ititli.com/T4&quot; rel=&quot;nofollow&quot; target=&quot;_NEW&quot;&gt;\nhttp://ititli.com/T4&lt;/a&gt; &lt;a href=&quot;\nhttp://ititli.com/TK&quot; rel=&quot;nofollow&quot; target=&quot;_NEW&quot;&gt;\nhttp://ititli.com/TK&lt;/a&gt; &lt;a href=&quot;\nhttp://ititli.com/TV&quot; rel=&quot;nofollow&quot; target=&quot;_NEW&quot;&gt;\nhttp://ititli.com/TV&lt;/a&gt; &lt;a href=&quot;\nhttp://ititli.com/Tt&quot; rel=&quot;nofollow&quot; target=&quot;_NEW&quot;&gt;\nhttp://ititli.com/Tt&lt;/a&gt; &lt;a href=&quot;\nhttp://ititli.com/TL&quot; rel=&quot;nofollow&quot; target=&quot;_NEW&quot;&gt;\nhttp://ititli.com/TL&lt;/a&gt; &lt;a href=&quot;\nhttp://ititli.com/Td&quot; rel=&quot;nofollow&quot; target=&quot;_NEW&quot;&gt;\nhttp://ititli.com/Td&lt;/a&gt; &lt;a href=&quot;\nhttp://ititli.com/T0&quot; rel=&quot;nofollow&quot; target=&quot;_NEW&quot;&gt;\nhttp://ititli.com/T0&lt;/a&gt; &lt;a href=&quot;\nhttp://ititli.com/TA&quot; rel=&quot;nofollow&quot; target=&quot;_NEW&quot;&gt;\nhttp://ititli.com/TA&lt;/a&gt; &lt;a href=&quot;\nhttp://ititli.com/Tl&quot; rel=&quot;nofollow&quot; target=&quot;_NEW&quot;&gt;\nhttp://ititli.com/Tl&lt;/a&gt;\n\n----------------------------------------------------------------------------------------------------\n\n\nEncoder Notes: Looking For Early Access To Anything You Can Provide DVDScr, R5, DVDR, BluRay, Direct\nAudio, Music Releases and Seedboxes. If You Got anything to offer please contact us.\n\nSupport us by donating BC - 1FgwdzPsd1y25Gea8wP1qni35uGCtmkRCD","torrent":{"xt":"urn:btih:feb22d253dc4fd415368dc6644390c5be2964b6f","amp;dn":"Manny.Lewis.2015.BRRip.480p.x264.AAC-VYTO+%5BP2PDL%5D","amp;tr":["udp%3A%2F%2Ftracker.openbittorrent.com%3A80","udp%3A%2F%2Fopen.demonii.com%3A1337","udp%3A%2F%2Ftracker.coppersurfer.tk%3A6969","udp%3A%2F%2Fexodus.desync.com%3A6969"],"infoHash":"feb22d253dc4fd415368dc6644390c5be2964b6f","infoHashBuffer":{"type":"Buffer","data":[254,178,45,37,61,196,253,65,83,104,220,102,68,57,12,91,226,150,75,111]},"announce":[],"urlList":[]}}